<svg width="46" height="58" viewBox="0 0 46 58" fill="none" xmlns="http://www.w3.org/2000/svg">
<path d="M6.15962 33.04L6.58712 30.98C5.17012 29.563 5.06412 27.982 5.12512 27.263C5.17047 26.7291 4.91912 22.907 11.6631 16.373C12.3397 15.7172 12.9281 14.989 13.3981 14.172C14.3438 12.527 16.1101 9.174 18.6981 3.142C22.5491 -5.836 26.8141 15.292 26.0941 21.332C25.9999 22.1233 25.1169 26.648 24.9841 27.434L22.1041 38.224" fill="#0052A5"/>
<path d="M24.9898 39.28C53.7598 38.352 43.5498 1.23 42.6198 5.87C41.6918 10.51 14.7798 37.42 11.9998 33.71C9.21577 29.998 5.50377 29.07 3.64777 31.854C1.79177 34.638 0.86377 35.566 0.86377 35.566C0.86377 35.566 6.43177 34.638 7.35977 36.494C8.28777 38.35 11.2308 44.44 16.6398 44.846C16.6398 44.846 18.4868 45.4764 22.2078 53.198C26.5468 62.202 44.4778 53.198 38.9078 48.558C33.3398 43.918 29.6278 45.774 26.8478 43.918C24.0638 42.062 24.9918 39.278 24.9918 39.278L24.9898 39.28Z" fill="#0052A5"/>
<path d="M23.8496 53.94C23.8869 54.2947 33.3416 55.793 39.1596 48.516C39.3227 48.3118 40.0313 48.693 40.2426 48.7554C41.6306 52.8484 32.5866 58.0264 28.2526 56.7744C24.5676 55.4984 23.8586 53.9394 23.8586 53.9394L23.8496 53.94Z" fill="#0052A5"/>
<path d="M24.6899 38.48C24.7751 36.718 45.7699 35.519 42.8699 6.53C42.7238 5.07 45.1979 12.958 45.2839 14.374C46.9759 29.034 37.0279 40.644 24.6939 38.484L24.6899 38.48Z" fill="#0052A5"/>
<path d="M19.5195 30.72C23.3375 25.341 23.7225 11.46 20.4721 1.5C20.0173 0.104999 23.9471 6.433 24.4361 7.765C26.8261 14.401 27.1081 20.695 25.0003 26.155L19.5195 30.72Z" fill="#0052A5"/>
<path d="M10.8796 40.87C13.2576 40.8809 14.7256 37.583 14.0476 35.238C10.8086 29.382 4.72856 27.714 1.49756 35.469C7.36956 33.489 8.32556 36.924 10.8796 40.87V40.87Z" fill="#0052A5"/>
</svg>
