<svg width="47" height="59" viewBox="0 0 47 59" fill="none" xmlns="http://www.w3.org/2000/svg">
<path d="M6.15962 33.04L6.58712 30.98C5.17012 29.563 5.06412 27.982 5.12512 27.263C5.17047 26.7291 4.91912 22.907 11.6631 16.373C12.3397 15.7172 12.9281 14.989 13.3981 14.172C14.3438 12.527 16.1101 9.174 18.6981 3.142C22.5491 -5.836 26.8141 15.292 26.0941 21.332C25.9999 22.1233 25.1169 26.648 24.9841 27.434L22.1041 38.224" fill="#0052A5"/>
<path d="M20.9097 30.7171C23.9515 25.3456 24.291 11.4654 21.7371 1.49909C21.3798 0.103207 24.4815 6.43885 24.8662 7.7718C26.7458 14.4124 26.954 20.707 25.2686 26.1628L20.9097 30.7171Z" fill="#E0162B"/>
<path d="M24.9898 39.28C53.7598 38.352 43.5498 1.23 42.6198 5.87C41.6918 10.51 14.7798 37.42 11.9998 33.71C9.21577 29.998 5.50377 29.07 3.64777 31.854C1.79177 34.638 0.86377 35.566 0.86377 35.566C0.86377 35.566 6.43177 34.638 7.35977 36.494C8.28777 38.35 11.2308 44.44 16.6398 44.846C16.6398 44.846 18.4868 45.4764 22.2078 53.198C26.5468 62.202 44.4778 53.198 38.9078 48.558C33.3398 43.918 29.6278 45.774 26.8478 43.918C24.0638 42.062 24.9918 39.278 24.9918 39.278L24.9898 39.28Z" fill="#6197CE"/>
<path d="M23.9239 55.364C23.9794 55.7163 33.4987 56.7259 38.9344 49.1591C39.0867 48.9467 39.814 49.291 40.0283 49.3424C41.6251 53.3585 32.8596 58.9952 28.4669 57.968C24.7211 56.8834 23.9328 55.3629 23.9328 55.3629L23.9239 55.364Z" fill="#E0162B"/>
<path d="M27.402 39.0062C27.4041 37.2212 47.1299 35.1425 43.114 5.95275C42.9117 4.48264 45.5919 12.3557 45.7356 13.7838C47.9789 28.5361 39.1212 40.6849 27.4059 39.0101L27.402 39.0062Z" fill="#E0162B"/>
<path d="M9.93981 40.6472C12.1887 40.6487 13.5635 37.3915 12.9128 35.0822C9.82575 29.3215 4.06915 27.7008 1.0453 35.3591C6.5903 33.384 7.50841 36.7669 9.93981 40.6472V40.6472Z" fill="#0052A5"/>
</svg>
