<svg width="46" height="58" viewBox="0 0 46 58" fill="none" xmlns="http://www.w3.org/2000/svg">
<path d="M24.787 38.7894C53.147 37.8745 43.087 1.27944 42.167 5.85944C41.247 10.4394 14.727 36.9594 11.977 33.2994C9.233 29.6404 5.573 28.7254 3.744 31.4694C1.914 34.2134 1 35.1284 1 35.1284C1 35.1284 6.489 34.2135 7.404 36.0433C8.3189 37.8733 11.22 43.8763 16.552 44.2763C16.552 44.2763 18.373 44.8978 22.041 52.5093C26.318 61.3853 44.001 52.5093 38.511 47.9353C33.022 43.3613 29.363 45.1913 26.621 43.3613C23.877 41.5313 24.791 38.7873 24.791 38.7873L24.787 38.7894Z" stroke="#E0162B" stroke-width="2" stroke-miterlimit="10" stroke-linecap="round" stroke-linejoin="round"/>
<path d="M24.8672 19.1694C25.181 12.1504 21.6052 -4.94056 18.3862 3.10944C14.7272 12.2574 12.8972 14.9994 12.8972 14.9994C8.54916 19.1294 6.94016 22.2274 6.36816 24.1614" stroke="#E0162B" stroke-width="2" stroke-miterlimit="10" stroke-linecap="round" stroke-linejoin="round"/>
</svg>
